<svg width="542" height="349" viewBox="0 0 542 349" fill="none" xmlns="http://www.w3.org/2000/svg">
<path d="M109 0.499987C147 0.499987 179.833 7.66665 207.5 22C235.5 36 256.833 56.1666 271.5 82.5C286.5 108.833 294 139.833 294 175.5C294 211.167 286.5 242.167 271.5 268.5C256.833 294.5 235.5 314.5 207.5 328.5C179.833 342.167 147 349 109 349H0.500004V0.499987H109ZM109 311.5C154 311.5 188.333 299.667 212 276C235.667 252 247.5 218.5 247.5 175.5C247.5 132.167 235.5 98.3333 211.5 74C187.833 49.6667 153.667 37.5 109 37.5H46V311.5H109ZM399.516 37.5V154H526.516V191.5H399.516V311.5H541.516V349H354.016V-6.91414e-06H541.516V37.5H399.516Z" fill="#F2F2F2"/>
<path d="M207.5 22L207.04 22.8879L207.046 22.8912L207.053 22.8944L207.5 22ZM271.5 82.5L270.626 82.9866L270.631 82.9949L271.5 82.5ZM271.5 268.5L270.631 268.005L270.629 268.009L271.5 268.5ZM207.5 328.5L207.943 329.397L207.947 329.394L207.5 328.5ZM0.500004 349H-0.499996V350H0.500004V349ZM0.500004 0.499987V-0.500013H-0.499996V0.499987H0.500004ZM212 276L212.707 276.707L212.712 276.702L212 276ZM211.5 74L210.783 74.6972L210.788 74.7022L211.5 74ZM46 37.5V36.5H45V37.5H46ZM46 311.5H45V312.5H46V311.5ZM109 1.49999C146.875 1.49999 179.543 8.64267 207.04 22.8879L207.96 21.1121C180.123 6.69063 147.125 -0.500013 109 -0.500013V1.49999ZM207.053 22.8944C234.88 36.8081 256.062 56.836 270.626 82.9866L272.374 82.0134C257.605 55.4973 236.12 35.1918 207.947 21.1056L207.053 22.8944ZM270.631 82.9949C285.531 109.153 293 139.976 293 175.5H295C295 139.691 287.469 108.514 272.369 82.005L270.631 82.9949ZM293 175.5C293 211.024 285.531 241.847 270.631 268.005L272.369 268.995C287.469 242.486 295 211.309 295 175.5H293ZM270.629 268.009C256.065 293.826 234.884 313.69 207.053 327.606L207.947 329.394C236.116 315.31 257.601 295.174 272.371 268.991L270.629 268.009ZM207.057 327.603C179.556 341.188 146.881 348 109 348V350C147.119 350 180.11 343.145 207.943 329.397L207.057 327.603ZM109 348H0.500004V350H109V348ZM1.5 349V0.499987H-0.499996V349H1.5ZM0.500004 1.49999H109V-0.500013H0.500004V1.49999ZM109 312.5C154.171 312.5 188.795 300.619 212.707 276.707L211.293 275.293C187.871 298.715 153.829 310.5 109 310.5V312.5ZM212.712 276.702C236.61 252.467 248.5 218.687 248.5 175.5H246.5C246.5 218.313 234.723 251.533 211.288 275.298L212.712 276.702ZM248.5 175.5C248.5 131.978 236.443 97.865 212.212 73.2978L210.788 74.7022C234.557 98.8017 246.5 132.356 246.5 175.5H248.5ZM212.217 73.3028C188.308 48.7203 153.848 36.5 109 36.5V38.5C153.486 38.5 187.359 50.6131 210.783 74.6972L212.217 73.3028ZM109 36.5H46V38.5H109V36.5ZM45 37.5V311.5H47V37.5H45ZM46 312.5H109V310.5H46V312.5ZM399.516 37.5V36.5H398.516V37.5H399.516ZM399.516 154H398.516V155H399.516V154ZM526.516 154H527.516V153H526.516V154ZM526.516 191.5V192.5H527.516V191.5H526.516ZM399.516 191.5V190.5H398.516V191.5H399.516ZM399.516 311.5H398.516V312.5H399.516V311.5ZM541.516 311.5H542.516V310.5H541.516V311.5ZM541.516 349V350H542.516V349H541.516ZM354.016 349H353.016V350H354.016V349ZM354.016 -6.91414e-06V-1.00001H353.016V-6.91414e-06H354.016ZM541.516 -6.91414e-06H542.516V-1.00001H541.516V-6.91414e-06ZM541.516 37.5V38.5H542.516V37.5H541.516ZM398.516 37.5V154H400.516V37.5H398.516ZM399.516 155H526.516V153H399.516V155ZM525.516 154V191.5H527.516V154H525.516ZM526.516 190.5H399.516V192.5H526.516V190.5ZM398.516 191.5V311.5H400.516V191.5H398.516ZM399.516 312.5H541.516V310.5H399.516V312.5ZM540.516 311.5V349H542.516V311.5H540.516ZM541.516 348H354.016V350H541.516V348ZM355.016 349V-6.91414e-06H353.016V349H355.016ZM354.016 0.999993H541.516V-1.00001H354.016V0.999993ZM540.516 -6.91414e-06V37.5H542.516V-6.91414e-06H540.516ZM541.516 36.5H399.516V38.5H541.516V36.5Z" fill="black"/>
</svg>
