<svg width="548" height="285" viewBox="0 0 548 285" fill="none" xmlns="http://www.w3.org/2000/svg">
<path d="M140.2 284.8C114.333 284.8 90.7333 278.8 69.4 266.8C48.0667 254.533 31.1333 237.6 18.6 216C6.33333 194.133 0.200001 169.6 0.200001 142.4C0.200001 115.2 6.33333 90.8 18.6 69.2C31.1333 47.3333 48.0667 30.4 69.4 18.4C90.7333 6.13332 114.333 -1.71661e-05 140.2 -1.71661e-05C166.333 -1.71661e-05 190.067 6.13332 211.4 18.4C232.733 30.4 249.533 47.2 261.8 68.8C274.067 90.4 280.2 114.933 280.2 142.4C280.2 169.867 274.067 194.4 261.8 216C249.533 237.6 232.733 254.533 211.4 266.8C190.067 278.8 166.333 284.8 140.2 284.8ZM140.2 253.2C159.667 253.2 177.133 248.667 192.6 239.6C208.333 230.533 220.6 217.6 229.4 200.8C238.467 184 243 164.533 243 142.4C243 120 238.467 100.533 229.4 84C220.6 67.2 208.467 54.2667 193 45.2C177.533 36.1333 159.933 31.6 140.2 31.6C120.467 31.6 102.867 36.1333 87.4 45.2C71.9333 54.2667 59.6667 67.2 50.6 84C41.8 100.533 37.4 120 37.4 142.4C37.4 164.533 41.8 184 50.6 200.8C59.6667 217.6 71.9333 230.533 87.4 239.6C103.133 248.667 120.733 253.2 140.2 253.2ZM547.453 282H511.053L364.653 60V282H328.253V2.79999H364.653L511.053 224.4V2.79999H547.453V282Z" fill="#F2F2F2"/>
<path d="M69.4 266.8L68.9015 267.667L68.9097 267.672L69.4 266.8ZM18.6 216L17.7279 216.489L17.7314 216.496L17.7351 216.502L18.6 216ZM18.6 69.2L17.7324 68.7027L17.7304 68.7062L18.6 69.2ZM69.4 18.4L69.8903 19.2716L69.8985 19.2669L69.4 18.4ZM211.4 18.4L210.902 19.2669L210.91 19.2716L211.4 18.4ZM261.8 68.8L262.67 68.3062V68.3062L261.8 68.8ZM261.8 216L260.93 215.506L261.8 216ZM211.4 266.8L211.89 267.672L211.898 267.667L211.4 266.8ZM192.6 239.6L192.101 238.734L192.094 238.737L192.6 239.6ZM229.4 200.8L228.52 200.325L228.514 200.336L229.4 200.8ZM229.4 84L228.514 84.464L228.519 84.4725L228.523 84.4808L229.4 84ZM193 45.2L192.494 46.0627L193 45.2ZM87.4 45.2L87.9057 46.0627L87.4 45.2ZM50.6 84L49.72 83.525L49.7173 83.5301L50.6 84ZM50.6 200.8L49.7141 201.264L49.72 201.275L50.6 200.8ZM87.4 239.6L86.8943 240.463L86.9007 240.466L87.4 239.6ZM140.2 283.8C114.495 283.8 91.0653 277.839 69.8903 265.928L68.9097 267.672C90.4013 279.761 114.172 285.8 140.2 285.8V283.8ZM69.8985 265.933C48.7195 253.755 31.9116 236.949 19.4649 215.498L17.7351 216.502C30.3551 238.251 47.4138 255.311 68.9015 267.667L69.8985 265.933ZM19.4721 215.511C7.29633 193.806 1.2 169.444 1.2 142.4H-0.799999C-0.799999 169.756 5.37033 194.461 17.7279 216.489L19.4721 215.511ZM1.2 142.4C1.2 115.356 7.29636 91.1292 19.4696 69.6938L17.7304 68.7062C5.37031 90.4707 -0.799999 115.044 -0.799999 142.4H1.2ZM19.4676 69.6973C31.914 47.9822 48.719 31.1804 69.8903 19.2716L68.9097 17.5284C47.4143 29.6196 30.3527 46.6844 17.7324 68.7027L19.4676 69.6973ZM69.8985 19.2669C91.0723 7.09194 114.499 0.999985 140.2 0.999985V-1.00002C114.168 -1.00002 90.3944 5.17469 68.9015 17.5331L69.8985 19.2669ZM140.2 0.999985C166.17 0.999985 189.729 7.09286 210.902 19.2669L211.898 17.5331C190.404 5.17377 166.497 -1.00002 140.2 -1.00002V0.999985ZM210.91 19.2716C232.082 31.1811 248.752 47.8494 260.93 69.2938L262.67 68.3062C250.315 46.5506 233.384 29.6189 211.89 17.5284L210.91 19.2716ZM260.93 69.2938C273.103 90.7278 279.2 115.088 279.2 142.4H281.2C281.2 114.779 275.031 90.0722 262.67 68.3062L260.93 69.2938ZM279.2 142.4C279.2 169.712 273.103 194.072 260.93 215.506L262.67 216.494C275.031 194.728 281.2 170.021 281.2 142.4H279.2ZM260.93 215.506C248.751 236.952 232.079 253.756 210.902 265.933L211.898 267.667C233.388 255.31 250.316 238.248 262.67 216.494L260.93 215.506ZM210.91 265.928C189.736 277.839 166.174 283.8 140.2 283.8V285.8C166.493 285.8 190.397 279.761 211.89 267.672L210.91 265.928ZM140.2 254.2C159.829 254.2 177.473 249.627 193.106 240.463L192.094 238.737C176.794 247.706 159.505 252.2 140.2 252.2V254.2ZM193.099 240.466C209.005 231.301 221.402 218.224 230.286 201.264L228.514 200.336C219.798 216.976 207.662 229.766 192.101 238.734L193.099 240.466ZM230.28 201.275C239.437 184.307 244 164.673 244 142.4H242C242 164.394 237.496 183.693 228.52 200.325L230.28 201.275ZM244 142.4C244 119.863 239.438 100.225 230.277 83.5192L228.523 84.4808C237.495 100.841 242 120.136 242 142.4H244ZM230.286 83.536C221.404 66.5802 209.143 53.5042 193.506 44.3373L192.494 46.0627C207.79 55.0291 219.796 67.8198 228.514 84.464L230.286 83.536ZM193.506 44.3373C177.871 35.1718 160.093 30.6 140.2 30.6V32.6C159.774 32.6 177.196 37.0948 192.494 46.0627L193.506 44.3373ZM140.2 30.6C120.307 30.6 102.529 35.1718 86.8943 44.3373L87.9057 46.0627C103.204 37.0948 120.626 32.6 140.2 32.6V30.6ZM86.8943 44.3373C71.2594 53.5026 58.8677 66.5749 49.72 83.5251L51.48 84.4749C60.4656 67.8251 72.6073 55.0307 87.9057 46.0627L86.8943 44.3373ZM49.7173 83.5301C40.8265 100.234 36.4 119.868 36.4 142.4H38.4C38.4 120.132 42.7735 100.833 51.4827 84.4698L49.7173 83.5301ZM36.4 142.4C36.4 164.668 40.8276 184.299 49.7142 201.264L51.4858 200.336C42.7724 183.701 38.4 164.399 38.4 142.4H36.4ZM49.72 201.275C58.8677 218.225 71.2594 231.297 86.8943 240.463L87.9057 238.737C72.6073 229.769 60.4656 216.975 51.48 200.325L49.72 201.275ZM86.9007 240.466C102.797 249.627 120.571 254.2 140.2 254.2V252.2C120.896 252.2 103.47 247.706 87.8993 238.734L86.9007 240.466ZM547.453 282V283H548.453V282H547.453ZM511.053 282L510.218 282.551L510.515 283H511.053V282ZM364.653 60L365.488 59.4495L363.653 56.6672V60H364.653ZM364.653 282V283H365.653V282H364.653ZM328.253 282H327.253V283H328.253V282ZM328.253 2.8V1.8H327.253V2.8H328.253ZM364.653 2.8L365.487 2.24877L365.191 1.8H364.653V2.8ZM511.053 224.4L510.219 224.951L512.053 227.728V224.4H511.053ZM511.053 2.8V1.8H510.053V2.8H511.053ZM547.453 2.8H548.453V1.8H547.453V2.8ZM547.453 281H511.053V283H547.453V281ZM511.888 281.449L365.488 59.4495L363.818 60.5505L510.218 282.551L511.888 281.449ZM363.653 60V282H365.653V60H363.653ZM364.653 281H328.253V283H364.653V281ZM329.253 282V2.8H327.253V282H329.253ZM328.253 3.8H364.653V1.8H328.253V3.8ZM363.819 3.35121L510.219 224.951L511.888 223.849L365.487 2.24877L363.819 3.35121ZM512.053 224.4V2.8H510.053V224.4H512.053ZM511.053 3.8H547.453V1.8H511.053V3.8ZM546.453 2.8V282H548.453V2.8H546.453Z" fill="black"/>
</svg>
