<svg width="492" height="357" viewBox="0 0 492 357" fill="none" xmlns="http://www.w3.org/2000/svg">
<path d="M121 356.5C98 356.5 77.3333 352.5 59 344.5C41 336.167 26.8333 324.833 16.5 310.5C6.16667 295.833 0.833335 279 0.500002 260H49C50.6667 276.333 57.3333 290.167 69 301.5C81 312.5 98.3333 318 121 318C142.667 318 159.667 312.667 172 302C184.667 291 191 277 191 260C191 246.667 187.333 235.833 180 227.5C172.667 219.167 163.5 212.833 152.5 208.5C141.5 204.167 126.667 199.5 108 194.5C85 188.5 66.5 182.5 52.5 176.5C38.8333 170.5 27 161.167 17 148.5C7.33334 135.5 2.5 118.167 2.5 96.5C2.5 77.5 7.33334 60.6666 17 46C26.6667 31.3333 40.1667 20 57.5 12C75.1667 3.99998 95.3333 -1.50204e-05 118 -1.50204e-05C150.667 -1.50204e-05 177.333 8.16666 198 24.5C219 40.8333 230.833 62.5 233.5 89.5H183.5C181.833 76.1667 174.833 64.5 162.5 54.5C150.167 44.1667 133.833 39 113.5 39C94.5 39 79 44 67 54C55 63.6667 49 77.3333 49 95C49 107.667 52.5 118 59.5 126C66.8333 134 75.6667 140.167 86 144.5C96.6667 148.5 111.5 153.167 130.5 158.5C153.5 164.833 172 171.167 186 177.5C200 183.5 212 193 222 206C232 218.667 237 236 237 258C237 275 232.5 291 223.5 306C214.5 321 201.167 333.167 183.5 342.5C165.833 351.833 145 356.5 121 356.5ZM349.457 41.5V158H476.457V195.5H349.457V315.5H491.457V353H303.957V3.99999H491.457V41.5H349.457Z" fill="#F2F2F2"/>
<path d="M59 344.5L58.5799 345.407L58.5899 345.412L58.6001 345.417L59 344.5ZM16.5 310.5L15.6825 311.076L15.6888 311.085L16.5 310.5ZM0.500002 260V259H-0.517696L-0.499844 260.018L0.500002 260ZM49 260L49.9948 259.898L49.9032 259H49V260ZM69 301.5L68.3032 302.217L68.3136 302.227L68.3243 302.237L69 301.5ZM172 302L172.654 302.756L172.656 302.755L172 302ZM180 227.5L179.249 228.161L180 227.5ZM152.5 208.5L152.133 209.43L152.5 208.5ZM108 194.5L108.259 193.534L108.252 193.532L108 194.5ZM52.5 176.5L52.098 177.416L52.1061 177.419L52.5 176.5ZM17 148.5L16.1975 149.097L16.2062 149.108L16.2151 149.12L17 148.5ZM17 46L17.835 46.5503L17 46ZM57.5 12L57.0875 11.089L57.0809 11.092L57.5 12ZM198 24.5L197.38 25.2846L197.386 25.2894L198 24.5ZM233.5 89.5V90.5H234.604L234.495 89.4017L233.5 89.5ZM183.5 89.5L182.508 89.624L182.617 90.5H183.5V89.5ZM162.5 54.5L161.858 55.2665L161.864 55.2717L161.87 55.2768L162.5 54.5ZM67 54L67.6273 54.7787L67.6338 54.7735L67.6402 54.7682L67 54ZM59.5 126L58.7474 126.658L58.755 126.667L58.7628 126.676L59.5 126ZM86 144.5L85.6133 145.422L85.631 145.43L85.6489 145.436L86 144.5ZM130.5 158.5L130.23 159.463L130.235 159.464L130.5 158.5ZM186 177.5L185.588 178.411L185.597 178.415L185.606 178.419L186 177.5ZM222 206L221.207 206.61L221.215 206.62L222 206ZM223.5 306L224.357 306.514L223.5 306ZM183.5 342.5L183.033 341.616L183.5 342.5ZM121 355.5C98.1171 355.5 77.5896 351.521 59.3999 343.583L58.6001 345.417C77.0771 353.479 97.8829 357.5 121 357.5V355.5ZM59.4201 343.593C41.5566 335.322 27.5322 324.093 17.3112 309.915L15.6888 311.085C26.1345 325.574 40.4434 337.011 58.5799 345.407L59.4201 343.593ZM17.3175 309.924C7.10646 295.431 1.82989 278.795 1.49985 259.982L-0.499844 260.018C-0.163218 279.205 5.22687 296.236 15.6825 311.076L17.3175 309.924ZM0.500002 261H49V259H0.500002V261ZM48.0052 260.102C49.6955 276.666 56.4662 290.718 68.3032 302.217L69.6968 300.783C58.2005 289.615 51.6379 276 49.9948 259.898L48.0052 260.102ZM68.3243 302.237C80.5704 313.463 98.1817 319 121 319V317C98.485 317 81.4296 311.537 69.6757 300.763L68.3243 302.237ZM121 319C142.827 319 160.087 313.626 172.654 302.756L171.346 301.244C159.247 311.708 142.506 317 121 317V319ZM172.656 302.755C185.544 291.562 192 277.285 192 260H190C190 276.715 183.789 290.438 171.344 301.245L172.656 302.755ZM192 260C192 246.475 188.276 235.39 180.751 226.839L179.249 228.161C186.391 236.276 190 246.859 190 260H192ZM180.751 226.839C173.306 218.379 164.004 211.957 152.867 207.57L152.133 209.43C162.996 213.709 172.028 219.954 179.249 228.161L180.751 226.839ZM152.867 207.57C141.816 203.216 126.942 198.539 108.259 193.534L107.741 195.466C126.391 200.461 141.184 205.117 152.133 209.43L152.867 207.57ZM108.252 193.532C85.2772 187.539 66.8301 181.553 52.8939 175.581L52.1061 177.419C66.1699 183.447 84.7228 189.461 107.748 195.468L108.252 193.532ZM52.902 175.584C39.3973 169.655 27.6919 160.429 17.7849 147.88L16.2151 149.12C26.3081 161.904 38.2694 171.345 52.098 177.416L52.902 175.584ZM17.8025 147.903C8.30119 135.126 3.5 118.024 3.5 96.5H1.5C1.5 118.31 6.36548 135.874 16.1975 149.097L17.8025 147.903ZM3.5 96.5C3.5 77.6789 8.28479 61.0402 17.835 46.5503L16.165 45.4497C6.38189 60.2931 1.5 77.321 1.5 96.5H3.5ZM17.835 46.5503C27.3902 32.0527 40.7397 20.8369 57.9191 12.9079L57.0809 11.092C39.5936 19.1631 25.9432 30.6139 16.165 45.4497L17.835 46.5503ZM57.9125 12.9109C75.4295 4.97871 95.4518 0.999985 118 0.999985V-1.00002C95.2149 -1.00002 74.9038 3.02126 57.0875 11.089L57.9125 12.9109ZM118 0.999985C150.497 0.999985 176.929 9.12158 197.38 25.2846L198.62 23.7154C177.738 7.21173 150.836 -1.00002 118 -1.00002V0.999985ZM197.386 25.2894C218.165 41.4506 229.865 62.865 232.505 89.5983L234.495 89.4017C231.802 62.1349 219.835 40.216 198.614 23.7106L197.386 25.2894ZM233.5 88.5H183.5V90.5H233.5V88.5ZM184.492 89.376C182.788 75.7406 175.625 63.8543 163.13 53.7232L161.87 55.2768C174.042 65.1457 180.879 76.5927 182.508 89.624L184.492 89.376ZM163.142 53.7335C150.586 43.213 134.005 38 113.5 38V40C133.662 40 149.748 45.1203 161.858 55.2665L163.142 53.7335ZM113.5 38C94.3186 38 78.5761 43.0515 66.3598 53.2318L67.6402 54.7682C79.4239 44.9485 94.6814 40 113.5 40V38ZM66.3727 53.2212C54.1007 63.107 48 77.0806 48 95H50C50 77.586 55.8993 64.2263 67.6273 54.7787L66.3727 53.2212ZM48 95C48 107.86 51.5585 118.443 58.7474 126.658L60.2526 125.341C53.4415 117.557 50 107.473 50 95H48ZM58.7628 126.676C66.197 134.786 75.1512 141.035 85.6133 145.422L86.3867 143.578C76.1822 139.298 67.4697 133.214 60.2372 125.324L58.7628 126.676ZM85.6489 145.436C96.3545 149.451 111.219 154.126 130.23 159.463L130.77 157.537C111.781 152.207 96.9789 147.549 86.3511 143.564L85.6489 145.436ZM130.235 159.464C153.209 165.79 171.654 172.108 185.588 178.411L186.412 176.589C172.346 170.226 153.791 163.876 130.765 157.536L130.235 159.464ZM185.606 178.419C199.437 184.347 211.303 193.735 221.207 206.61L222.793 205.39C212.697 192.265 200.563 182.653 186.394 176.581L185.606 178.419ZM221.215 206.62C231.033 219.055 236 236.144 236 258H238C238 235.856 232.967 218.278 222.785 205.38L221.215 206.62ZM236 258C236 274.813 231.552 290.636 222.643 305.486L224.357 306.514C233.448 291.364 238 275.187 238 258H236ZM222.643 305.486C213.749 320.308 200.562 332.355 183.033 341.616L183.967 343.384C201.772 333.978 215.251 321.692 224.357 306.514L222.643 305.486ZM183.033 341.616C165.536 350.859 144.87 355.5 121 355.5V357.5C145.13 357.5 166.13 352.807 183.967 343.384L183.033 341.616ZM349.457 41.5V40.5H348.457V41.5H349.457ZM349.457 158H348.457V159H349.457V158ZM476.457 158H477.457V157H476.457V158ZM476.457 195.5V196.5H477.457V195.5H476.457ZM349.457 195.5V194.5H348.457V195.5H349.457ZM349.457 315.5H348.457V316.5H349.457V315.5ZM491.457 315.5H492.457V314.5H491.457V315.5ZM491.457 353V354H492.457V353H491.457ZM303.957 353H302.957V354H303.957V353ZM303.957 4V3H302.957V4H303.957ZM491.457 4H492.457V3H491.457V4ZM491.457 41.5V42.5H492.457V41.5H491.457ZM348.457 41.5V158H350.457V41.5H348.457ZM349.457 159H476.457V157H349.457V159ZM475.457 158V195.5H477.457V158H475.457ZM476.457 194.5H349.457V196.5H476.457V194.5ZM348.457 195.5V315.5H350.457V195.5H348.457ZM349.457 316.5H491.457V314.5H349.457V316.5ZM490.457 315.5V353H492.457V315.5H490.457ZM491.457 352H303.957V354H491.457V352ZM304.957 353V4H302.957V353H304.957ZM303.957 5H491.457V3H303.957V5ZM490.457 4V41.5H492.457V4H490.457ZM491.457 40.5H349.457V42.5H491.457V40.5Z" fill="black"/>
</svg>
