<svg width="385" height="353" viewBox="0 0 385 353" fill="none" xmlns="http://www.w3.org/2000/svg">
<path d="M46 0.499987V221C46 252 53.5 275 68.5 290C83.8333 305 105 312.5 132 312.5C158.667 312.5 179.5 305 194.5 290C209.833 275 217.5 252 217.5 221V0.499987H263V220.5C263 249.5 257.167 274 245.5 294C233.833 313.667 218 328.333 198 338C178.333 347.667 156.167 352.5 131.5 352.5C106.833 352.5 84.5 347.667 64.5 338C44.8333 328.333 29.1667 313.667 17.5 294C6.16667 274 0.500001 249.5 0.500001 220.5V0.499987H46ZM384.402 0.499987V349H338.902V0.499987H384.402Z" fill="#F2F2F2"/>
<path d="M46 0.499985H47V-0.500015H46V0.499985ZM68.5 290L67.7929 290.707L67.8007 290.715L68.5 290ZM194.5 290L193.801 289.285L193.793 289.293L194.5 290ZM217.5 0.499985V-0.500015H216.5V0.499985H217.5ZM263 0.499985H264V-0.500015H263V0.499985ZM245.5 294L246.36 294.51L246.364 294.504L245.5 294ZM198 338L197.565 337.1L197.559 337.103L198 338ZM64.5 338L64.0589 338.897L64.0648 338.9L64.5 338ZM17.5 294L16.63 294.493L16.6349 294.502L16.6399 294.51L17.5 294ZM0.5 0.499985V-0.500015H-0.5V0.499985H0.5ZM45 0.499985V221H47V0.499985H45ZM45 221C45 252.143 52.5338 275.448 67.7929 290.707L69.2071 289.293C54.4662 274.552 47 251.857 47 221H45ZM67.8007 290.715C83.3662 305.942 104.81 313.5 132 313.5V311.5C105.19 311.5 84.3005 304.058 69.1993 289.285L67.8007 290.715ZM132 313.5C158.86 313.5 179.974 305.94 195.207 290.707L193.793 289.293C179.026 304.06 158.473 311.5 132 311.5V313.5ZM195.199 290.715C210.797 275.456 218.5 252.149 218.5 221H216.5C216.5 251.851 208.87 274.544 193.801 289.285L195.199 290.715ZM218.5 221V0.499985H216.5V221H218.5ZM217.5 1.49998H263V-0.500015H217.5V1.49998ZM262 0.499985V220.5H264V0.499985H262ZM262 220.5C262 249.367 256.194 273.683 244.636 293.496L246.364 294.504C258.14 274.317 264 249.633 264 220.5H262ZM244.64 293.49C233.07 312.993 217.383 327.521 197.565 337.1L198.435 338.9C218.617 329.146 234.596 314.341 246.36 294.51L244.64 293.49ZM197.559 337.103C178.046 346.694 156.033 351.5 131.5 351.5V353.5C156.3 353.5 178.621 348.64 198.441 338.897L197.559 337.103ZM131.5 351.5C106.967 351.5 84.7851 346.694 64.9352 337.1L64.0648 338.9C84.2149 348.64 106.699 353.5 131.5 353.5V351.5ZM64.9411 337.103C45.4566 327.525 29.9322 312.997 18.3601 293.49L16.6399 294.51C28.4012 314.336 44.2101 329.141 64.0589 338.897L64.9411 337.103ZM18.37 293.507C7.14141 273.692 1.5 249.372 1.5 220.5H-0.5C-0.5 249.628 5.19193 274.308 16.63 294.493L18.37 293.507ZM1.5 220.5V0.499985H-0.5V220.5H1.5ZM0.5 1.49998H46V-0.500015H0.5V1.49998ZM384.402 0.499985H385.402V-0.500015H384.402V0.499985ZM384.402 349V350H385.402V349H384.402ZM338.902 349H337.902V350H338.902V349ZM338.902 0.499985V-0.500015H337.902V0.499985H338.902ZM383.402 0.499985V349H385.402V0.499985H383.402ZM384.402 348H338.902V350H384.402V348ZM339.902 349V0.499985H337.902V349H339.902ZM338.902 1.49998H384.402V-0.500015H338.902V1.49998Z" fill="black"/>
</svg>
